G04 ================== begin FILE IDENTIFICATION RECORD ==================*
G04 Layout Name:  C:/Users/raddu/Documents/ORCAD Proiect/ProiectBoard/ProiectBoard.brd*
G04 Film Name:    SSTOP*
G04 File Format:  Gerber RS274X*
G04 File Origin:  Cadence Allegro 16.6-2015-S059*
G04 Origin Date:  Fri Nov 09 16:30:16 2018*
G04 *
G04 Layer:  USER PART NUMBER/SILKSCREEN_TOP*
G04 Layer:  TOLERANCE/SILKSCREEN_TOP*
G04 Layer:  REF DES/SILKSCREEN_TOP*
G04 Layer:  PACKAGE GEOMETRY/SILKSCREEN_TOP*
G04 Layer:  DEVICE TYPE/SILKSCREEN_TOP*
G04 Layer:  COMPONENT VALUE/SILKSCREEN_TOP*
G04 Layer:  BOARD GEOMETRY/SILKSCREEN_TOP*
G04 *
G04 Offset:    (0 0)*
G04 Mirror:    No*
G04 Mode:      Positive*
G04 Rotation:  0*
G04 FullContactRelief:  No*
G04 UndefLineWidth:     10*
G04 ================== end FILE IDENTIFICATION RECORD ====================*
%FSLAX25Y25*MOIN*%
%IR0*IPPOS*OFA0.00000B0.00000*MIA0B0*SFA1.00000B1.00000*%
%ADD10C,.01*%
%ADD11C,.001*%
%ADD12C,.003*%
%ADD13C,.004*%
%ADD14C,.008*%
G75*
%LPD*%
G75*
G54D10*
G01X65400Y21700D02*
G03I-487J-15D01*
G01X112400D02*
G03I-487J-15D01*
G01X145100Y45400D02*
Y38600D01*
G01X147200Y38100D02*
G02I-507J-37D01*
G01X16000Y64000D02*
Y70000D01*
X30000D01*
Y64000D01*
X16000D01*
G01X27500Y132500D02*
X34000D01*
Y132600D01*
Y149500D01*
X27500D01*
G01X16500D02*
X10000D01*
Y132500D01*
X11500D01*
X16500D01*
G01X42000Y71000D02*
Y77000D01*
X54000D01*
Y71000D01*
X42000D01*
G01X64000Y68000D02*
Y80000D01*
X70000D01*
Y68000D01*
X64000D01*
G01X129500Y29500D02*
X123000D01*
Y29400D01*
Y12500D01*
X129500D01*
G01X101000Y102000D02*
Y116000D01*
X107000D01*
Y102000D01*
X101000D01*
G01X117000D02*
Y116000D01*
X123000D01*
Y102000D01*
X117000D01*
G01X101000Y122000D02*
Y136000D01*
X107000D01*
Y122000D01*
X101000D01*
G01X117000D02*
Y136000D01*
X123000D01*
Y122000D01*
X117000D01*
G01X140500Y12500D02*
X147000D01*
Y29500D01*
X145500D01*
X140500D01*
G54D11*
G01X29200Y37000D02*
Y37700D01*
G01Y37500D02*
X29300Y37600D01*
X29400D01*
X29500Y37700D01*
X29600Y37600D01*
X29700D01*
X29800Y37500D01*
Y37000D01*
G01X30400Y37400D02*
X30900D01*
X30800Y37600D01*
D01*
X30600Y37700D01*
X30500Y37600D01*
X30400D01*
Y37500D01*
X30300Y37400D01*
Y37300D01*
X30400Y37200D01*
Y37100D01*
X30500Y37000D01*
X30700D01*
X30800D01*
X30900Y37100D01*
G01X31500Y36700D02*
X31600D01*
X31700D01*
X31800D01*
X31900Y36800D01*
X32000Y36900D01*
Y37700D01*
G01Y37500D02*
X31900Y37600D01*
X31800D01*
X31700Y37700D01*
X31600Y37600D01*
X31500D01*
X31400Y37400D01*
Y37300D01*
Y37200D01*
X31500Y37100D01*
X31600Y37000D01*
X31700D01*
X31800D01*
X31900Y37100D01*
X32000D01*
G01X32600Y37300D02*
X33000D01*
G01X13300Y29000D02*
Y30000D01*
X13700D01*
X13800Y29900D01*
X13900D01*
X14000Y29800D01*
X14100Y29700D01*
Y29500D01*
Y29300D01*
X14000Y29200D01*
X13900Y29100D01*
X13800Y29000D01*
X13700D01*
X13300D01*
G01X14600Y30000D02*
X15000D01*
G01X14800D02*
Y29000D01*
G01X14600D02*
X15000D01*
G01X15500Y30000D02*
X15900Y29000D01*
X16300Y30000D01*
G01X16800D02*
X17200D01*
G01X17000D02*
Y29000D01*
G01X16800D02*
X17200D01*
G01X17800Y30000D02*
X18400D01*
X17800Y29000D01*
X18400D01*
G01X19200D02*
X19100D01*
X19000Y29100D01*
X18800Y29200D01*
Y29300D01*
X18700Y29400D01*
Y29600D01*
X18800Y29700D01*
Y29800D01*
X19000Y29900D01*
X19100Y30000D01*
X19200D01*
X19300D01*
X19400Y29900D01*
X19600Y29800D01*
Y29700D01*
X19700Y29600D01*
Y29400D01*
X19600Y29300D01*
Y29200D01*
X19400Y29100D01*
X19300Y29000D01*
X19200D01*
G01X20000D02*
Y30000D01*
X20400D01*
X20500Y29900D01*
X20600D01*
Y29700D01*
Y29600D01*
X20500Y29500D01*
X20400D01*
X20000D01*
G01X20400D02*
X20600Y29000D01*
G01X14300Y151100D02*
Y151000D01*
X14400D01*
X14600D01*
X14700D01*
Y151100D01*
D01*
Y151300D01*
D01*
X14400Y151400D01*
X14300Y151500D01*
Y151600D01*
X14400D01*
X14500Y151700D01*
X14600Y151600D01*
X14700D01*
G01X15400Y150700D02*
X15500D01*
X15600D01*
X15700D01*
X15800Y150800D01*
X15900Y150900D01*
Y151700D01*
G01Y151500D02*
X15800Y151600D01*
X15700D01*
X15600Y151700D01*
X15500Y151600D01*
X15400D01*
X15300Y151400D01*
Y151300D01*
Y151200D01*
X15400Y151100D01*
X15500Y151000D01*
X15600D01*
X15700D01*
X15800Y151100D01*
X15900D01*
G01X16400Y151000D02*
Y151700D01*
G01Y151500D02*
X16500Y151600D01*
X16600D01*
X16700Y151700D01*
X16800Y151600D01*
X16900D01*
X17000Y151500D01*
Y151000D01*
G01X27300Y150700D02*
X27400D01*
X27500D01*
X27600D01*
X27700Y150800D01*
X27800Y150900D01*
Y151700D01*
G01Y151500D02*
X27700Y151600D01*
X27600D01*
X27500Y151700D01*
X27400Y151600D01*
X27300D01*
X27200Y151400D01*
Y151300D01*
Y151200D01*
X27300Y151100D01*
X27400Y151000D01*
X27500D01*
X27600D01*
X27700Y151100D01*
X27800D01*
G01X28300Y151000D02*
Y151700D01*
G01Y151500D02*
X28400Y151600D01*
X28500D01*
X28600Y151700D01*
X28700Y151600D01*
X28800D01*
X28900Y151500D01*
Y151000D01*
G01X30000Y152000D02*
Y151000D01*
G01Y151100D02*
X29900D01*
X29800Y151000D01*
X29700D01*
X29600D01*
X29500Y151100D01*
X29400Y151200D01*
Y151300D01*
Y151400D01*
X29500Y151600D01*
X29600D01*
X29700Y151700D01*
X29800Y151600D01*
X29900D01*
X30000D01*
G01X30600Y151300D02*
X31000D01*
G01X58200Y36700D02*
Y37700D01*
G01Y37500D02*
X58300Y37600D01*
X58400D01*
X58500Y37700D01*
X58600Y37600D01*
X58700D01*
X58800Y37400D01*
Y37300D01*
Y37200D01*
X58700Y37100D01*
X58600Y37000D01*
X58500D01*
X58400D01*
X58300Y37100D01*
X58200D01*
G01X59600Y37000D02*
X59500D01*
X59400Y37100D01*
X59300Y37200D01*
Y37300D01*
Y37500D01*
X59400Y37600D01*
X59500D01*
X59600Y37700D01*
X59700Y37600D01*
X59800D01*
X59900Y37500D01*
Y37300D01*
Y37200D01*
X59800Y37100D01*
X59700Y37000D01*
X59600D01*
G01X60500Y37100D02*
Y37000D01*
X60600D01*
X60800D01*
X60900D01*
Y37100D01*
D01*
Y37300D01*
D01*
X60600Y37400D01*
X60500Y37500D01*
Y37600D01*
X60600D01*
X60700Y37700D01*
X60800Y37600D01*
X60900D01*
G01X61600Y37300D02*
X62000D01*
G01X61800Y37600D02*
Y37100D01*
G01X76200Y37000D02*
Y37700D01*
G01Y37500D02*
X76300Y37600D01*
X76400D01*
X76500Y37700D01*
X76600Y37600D01*
X76700D01*
X76800Y37500D01*
Y37000D01*
G01X77400Y37400D02*
X77900D01*
X77800Y37600D01*
D01*
X77600Y37700D01*
X77500Y37600D01*
X77400D01*
Y37500D01*
X77300Y37400D01*
Y37300D01*
X77400Y37200D01*
Y37100D01*
X77500Y37000D01*
X77700D01*
X77800D01*
X77900Y37100D01*
G01X78500Y36700D02*
X78600D01*
X78700D01*
X78800D01*
X78900Y36800D01*
X79000Y36900D01*
Y37700D01*
G01Y37500D02*
X78900Y37600D01*
X78800D01*
X78700Y37700D01*
X78600Y37600D01*
X78500D01*
X78400Y37400D01*
Y37300D01*
Y37200D01*
X78500Y37100D01*
X78600Y37000D01*
X78700D01*
X78800D01*
X78900Y37100D01*
X79000D01*
G01X79600Y37300D02*
X80000D01*
G01X123100Y32000D02*
X123500Y31000D01*
X123900Y32000D01*
G01X124900Y31600D02*
X124800D01*
X124700Y31700D01*
X124500Y31600D01*
X124400D01*
Y31400D01*
X124300Y31300D01*
X124400Y31200D01*
Y31100D01*
X124500Y31000D01*
X124700D01*
X124800D01*
X124900Y31100D01*
G01X126000Y31600D02*
X125900D01*
X125800Y31700D01*
X125600Y31600D01*
X125500D01*
Y31400D01*
X125400Y31300D01*
X125500Y31200D01*
Y31100D01*
X125600Y31000D01*
X125800D01*
X125900D01*
X126000Y31100D01*
G01X126600Y31300D02*
X127000D01*
G01X126800Y31600D02*
Y31100D01*
G01X105200Y36700D02*
Y37700D01*
G01Y37500D02*
X105300Y37600D01*
X105400D01*
X105500Y37700D01*
X105600Y37600D01*
X105700D01*
X105800Y37400D01*
Y37300D01*
Y37200D01*
X105700Y37100D01*
X105600Y37000D01*
X105500D01*
X105400D01*
X105300Y37100D01*
X105200D01*
G01X106600Y37000D02*
X106500D01*
X106400Y37100D01*
X106300Y37200D01*
Y37300D01*
Y37500D01*
X106400Y37600D01*
X106500D01*
X106600Y37700D01*
X106700Y37600D01*
X106800D01*
X106900Y37500D01*
Y37300D01*
Y37200D01*
X106800Y37100D01*
X106700Y37000D01*
X106600D01*
G01X107500Y37100D02*
Y37000D01*
X107600D01*
X107800D01*
X107900D01*
Y37100D01*
D01*
Y37300D01*
D01*
X107600Y37400D01*
X107500Y37500D01*
Y37600D01*
X107600D01*
X107700Y37700D01*
X107800Y37600D01*
X107900D01*
G01X108600Y37300D02*
X109000D01*
G01X108800Y37600D02*
Y37100D01*
G01X143600Y31500D02*
X143900D01*
Y31200D01*
X143800Y31100D01*
X143700Y31000D01*
X143600D01*
X143400D01*
X143300Y31100D01*
X143200Y31200D01*
X143100Y31300D01*
Y31400D01*
Y31600D01*
Y31700D01*
X143200Y31800D01*
X143300Y31900D01*
X143400D01*
X143500Y32000D01*
X143600D01*
X143700D01*
X143900Y31900D01*
G01X144200Y31000D02*
Y32000D01*
X145000Y31000D01*
Y32000D01*
G01X145300Y31000D02*
Y32000D01*
X145700D01*
X145800Y31900D01*
X145900D01*
X146000Y31800D01*
X146100Y31700D01*
Y31500D01*
Y31300D01*
X146000Y31200D01*
X145900Y31100D01*
X145800Y31000D01*
X145700D01*
X145300D01*
G01X146600Y31300D02*
X147000D01*
G01X132800Y40000D02*
Y40700D01*
G01Y40600D02*
X132700D01*
X132600D01*
X132500Y40700D01*
X132400Y40600D01*
X132300D01*
X132200Y40500D01*
Y40300D01*
Y40200D01*
X132300Y40100D01*
X132400Y40000D01*
X132500D01*
X132600D01*
X132700Y40100D01*
X132800D01*
G01X133400Y40300D02*
X133800D01*
G01X133600Y40600D02*
Y40100D01*
G01X146800Y40600D02*
X146700D01*
X146600Y40700D01*
X146400Y40600D01*
X146300D01*
Y40400D01*
X146200Y40300D01*
X146300Y40200D01*
Y40100D01*
X146400Y40000D01*
X146600D01*
X146700D01*
X146800Y40100D01*
G01X147400Y40300D02*
X147800D01*
G01X140000Y132300D02*
X140400D01*
G01X140200D02*
Y131300D01*
G01X140000D02*
X140400D01*
G01X141600D02*
X141000D01*
Y132300D01*
X141600D01*
G01X141400Y131800D02*
X141000D01*
G01X142000Y131400D02*
X142200Y131300D01*
X142300D01*
X142500D01*
X142600D01*
X142700Y131400D01*
X142800Y131600D01*
X142700Y131700D01*
X142600Y131800D01*
X142500D01*
X142300Y131900D01*
X142200D01*
X142100Y132000D01*
X142200Y132200D01*
D01*
X142300Y132300D01*
X142500D01*
X142600D01*
X142700Y132200D01*
G01X143300Y132300D02*
X143700D01*
G01X143500D02*
Y131300D01*
G01X143300D02*
X143700D01*
G01X144300D02*
Y132300D01*
X144700D01*
X144800Y132200D01*
X144900D01*
Y132000D01*
Y131900D01*
X144800Y131800D01*
X144700D01*
X144300D01*
G01X144700D02*
X144900Y131300D01*
G01X146000D02*
X145400D01*
Y132300D01*
X146000D01*
G01X145800Y131800D02*
X145400D01*
G01X140000Y132300D02*
X140400D01*
G01X140200D02*
Y131300D01*
G01X140000D02*
X140400D01*
G01X141600D02*
X141000D01*
Y132300D01*
X141600D01*
G01X141400Y131800D02*
X141000D01*
G01X142000Y131400D02*
X142200Y131300D01*
X142300D01*
X142500D01*
X142600D01*
X142700Y131400D01*
X142800Y131600D01*
X142700Y131700D01*
X142600Y131800D01*
X142500D01*
X142300Y131900D01*
X142200D01*
X142100Y132000D01*
X142200Y132200D01*
D01*
X142300Y132300D01*
X142500D01*
X142600D01*
X142700Y132200D01*
G01X143300Y132300D02*
X143700D01*
G01X143500D02*
Y131300D01*
G01X143300D02*
X143700D01*
G01X144300D02*
Y132300D01*
X144700D01*
X144800Y132200D01*
X144900D01*
Y132000D01*
Y131900D01*
X144800Y131800D01*
X144700D01*
X144300D01*
G01X144700D02*
X144900Y131300D01*
G01X146000D02*
X145400D01*
Y132300D01*
X146000D01*
G01X145800Y131800D02*
X145400D01*
G01X143900Y121600D02*
X143800Y121700D01*
Y121800D01*
X143600D01*
X143500D01*
X143400Y121700D01*
X143300Y121600D01*
Y121500D01*
Y120800D01*
G01X142900Y121600D02*
X142800Y121700D01*
X142600Y121800D01*
X142500D01*
X142300D01*
X142200Y121700D01*
X142100Y121600D01*
Y121500D01*
Y121400D01*
X142300Y121300D01*
X142400D01*
X142500D01*
G01X142400D02*
X142300Y121200D01*
X142200Y121100D01*
Y121000D01*
Y120900D01*
X142300D01*
X142400Y120800D01*
X142600D01*
X142700Y120900D01*
G54D12*
G01X22600Y73200D02*
X22400Y73300D01*
X22200Y73400D01*
X21900D01*
X21700Y73300D01*
X21500Y73100D01*
X21300Y72800D01*
X21200Y72400D01*
X21100Y72100D01*
X21200Y71700D01*
X21300Y71500D01*
X21500Y71200D01*
X21700Y71100D01*
X21900Y71000D01*
X22100D01*
X22300Y71100D01*
X22500Y71200D01*
X22700Y71400D01*
G01X24100Y71000D02*
Y73400D01*
X23700Y72900D01*
G01Y71000D02*
X24500D01*
G01X21300Y61000D02*
Y63400D01*
X22000D01*
X22300Y63300D01*
X22400Y63100D01*
X22500Y62800D01*
X22400Y62500D01*
X22300Y62300D01*
X22000Y62200D01*
X21300D01*
G01X22000D02*
X22500Y61000D01*
G01X23400Y61500D02*
X23600Y61200D01*
X23900Y61000D01*
X24100D01*
X24400D01*
X24600Y61200D01*
X24800Y61500D01*
Y61700D01*
X24700Y62000D01*
X24500Y62200D01*
X24300Y62300D01*
X24000D01*
G01X24300D02*
X24500Y62400D01*
X24600Y62600D01*
X24700Y62800D01*
X24600Y63100D01*
X24500Y63300D01*
X24200Y63400D01*
X24000D01*
X23700Y63200D01*
G01X21300Y85000D02*
Y87400D01*
X22000D01*
X22300Y87300D01*
X22400Y87100D01*
X22500Y86800D01*
X22400Y86500D01*
X22300Y86300D01*
X22000Y86200D01*
X21300D01*
G01X22000D02*
X22500Y85000D01*
G01X24100D02*
Y87400D01*
X23700Y86900D01*
G01Y85000D02*
X24500D01*
G01X20200Y99000D02*
Y101400D01*
X20900D01*
X21200Y101300D01*
X21300Y101100D01*
X21400Y100800D01*
X21300Y100500D01*
X21200Y100300D01*
X20900Y100200D01*
X20200D01*
G01X20900D02*
X21400Y99000D01*
G01X23000D02*
Y101400D01*
X22600Y100900D01*
G01Y99000D02*
X23400D01*
G01X24500Y99400D02*
X24700Y99200D01*
X24900Y99000D01*
X25200D01*
X25500Y99100D01*
X25700Y99200D01*
X25800Y99500D01*
X25900Y99800D01*
X25800Y100200D01*
X25600Y100400D01*
X25400Y100500D01*
X25200Y100600D01*
X25000Y100500D01*
X24800Y100400D01*
Y101400D01*
X25600D01*
G01X19200Y127000D02*
Y129400D01*
X19900D01*
X20200Y129300D01*
X20300Y129100D01*
X20400Y128800D01*
X20300Y128500D01*
X20200Y128300D01*
X19900Y128200D01*
X19200D01*
G01X19900D02*
X20400Y127000D01*
G01X22000D02*
Y129400D01*
X21600Y128900D01*
G01Y127000D02*
X22400D01*
G01X23500Y127500D02*
X23700Y127200D01*
X24000Y127000D01*
X24200D01*
X24500D01*
X24700Y127200D01*
X24900Y127500D01*
Y127700D01*
X24800Y128000D01*
X24600Y128200D01*
X24400Y128300D01*
X24100D01*
G01X24400D02*
X24600Y128400D01*
X24700Y128600D01*
X24800Y128800D01*
X24700Y129100D01*
X24600Y129300D01*
X24300Y129400D01*
X24100D01*
X23800Y129200D01*
G01X19200Y113000D02*
Y115400D01*
X19900D01*
X20200Y115300D01*
X20300Y115100D01*
X20400Y114800D01*
X20300Y114500D01*
X20200Y114300D01*
X19900Y114200D01*
X19200D01*
G01X19900D02*
X20400Y113000D01*
G01X22000D02*
Y115400D01*
X21600Y114900D01*
G01Y113000D02*
X22400D01*
G01X24600D02*
Y115400D01*
X23400Y113700D01*
X25000D01*
G01X34300Y145500D02*
X34500Y145200D01*
X34600Y145100D01*
X34800Y145000D01*
X35100Y145100D01*
X35300Y145200D01*
X35400Y145500D01*
X35500Y145800D01*
Y147400D01*
G01X36500Y147000D02*
X36700Y147200D01*
X36900Y147400D01*
X37200D01*
X37500Y147300D01*
X37700Y147100D01*
Y146900D01*
Y146600D01*
X37600Y146400D01*
X37000Y146000D01*
X36700Y145800D01*
X36500Y145400D01*
Y145000D01*
X37700D01*
G01X41600Y45200D02*
X41400Y45300D01*
X41200Y45400D01*
X40900D01*
X40700Y45300D01*
X40500Y45100D01*
X40300Y44800D01*
X40200Y44400D01*
X40100Y44100D01*
X40200Y43700D01*
X40300Y43500D01*
X40500Y43200D01*
X40700Y43100D01*
X40900Y43000D01*
X41100D01*
X41300Y43100D01*
X41500Y43200D01*
X41700Y43400D01*
G01X43000Y43000D02*
X43100Y43500D01*
X43200Y44000D01*
X43300Y44400D01*
X43500Y44800D01*
X43700Y45400D01*
X42500D01*
G01X60300Y59000D02*
Y61400D01*
X61000D01*
X61300Y61300D01*
X61400Y61100D01*
X61500Y60800D01*
X61400Y60500D01*
X61300Y60300D01*
X61000Y60200D01*
X60300D01*
G01X61000D02*
X61500Y59000D01*
G01X62500Y61000D02*
X62700Y61200D01*
X62900Y61400D01*
X63200D01*
X63500Y61300D01*
X63700Y61100D01*
Y60900D01*
Y60600D01*
X63600Y60400D01*
X63000Y60000D01*
X62700Y59800D01*
X62500Y59400D01*
Y59000D01*
X63700D01*
G01X46900Y78000D02*
X46700D01*
X46500Y78200D01*
X46300Y78400D01*
X46100Y78700D01*
Y79000D01*
Y79400D01*
Y79700D01*
X46300Y80000D01*
X46500Y80200D01*
X46700Y80400D01*
X46900D01*
X47100D01*
X47300Y80200D01*
X47500Y80000D01*
X47700Y79700D01*
Y79400D01*
Y79000D01*
Y78700D01*
X47500Y78400D01*
X47300Y78200D01*
X47100Y78000D01*
X46900D01*
G01X47100Y78600D02*
X47500Y78000D01*
G01X49100D02*
Y80400D01*
X48700Y79900D01*
G01Y78000D02*
X49500D01*
G01X42300Y100000D02*
Y102400D01*
X43000D01*
X43300Y102300D01*
X43400Y102100D01*
X43500Y101800D01*
X43400Y101500D01*
X43300Y101300D01*
X43000Y101200D01*
X42300D01*
G01X43000D02*
X43500Y100000D01*
G01X45000D02*
X45100Y100500D01*
X45200Y101000D01*
X45300Y101400D01*
X45500Y101800D01*
X45700Y102400D01*
X44500D01*
G01X64300Y131000D02*
Y133400D01*
X65000D01*
X65300Y133300D01*
X65400Y133100D01*
X65500Y132800D01*
X65400Y132500D01*
X65300Y132300D01*
X65000Y132200D01*
X64300D01*
G01X65000D02*
X65500Y131000D01*
G01X66600Y131300D02*
X66800Y131100D01*
X67000Y131000D01*
X67300Y131100D01*
X67500Y131300D01*
X67600Y131700D01*
X67700Y132000D01*
Y132500D01*
X67600Y132800D01*
X67500Y133200D01*
X67300Y133300D01*
X67100Y133400D01*
X66900Y133300D01*
X66700Y133200D01*
X66600Y132900D01*
X66500Y132600D01*
X66600Y132300D01*
X66700Y132000D01*
X66900Y131900D01*
X67100Y131800D01*
X67300Y131900D01*
X67500Y132100D01*
X67700Y132500D01*
G01X50300Y145000D02*
Y147400D01*
X51000D01*
X51300Y147300D01*
X51400Y147100D01*
X51500Y146800D01*
X51400Y146500D01*
X51300Y146300D01*
X51000Y146200D01*
X50300D01*
G01X51000D02*
X51500Y145000D01*
G01X53500D02*
Y147400D01*
X52300Y145700D01*
X53900D01*
G01X83600Y45200D02*
X83400Y45300D01*
X83200Y45400D01*
X82900D01*
X82700Y45300D01*
X82500Y45100D01*
X82300Y44800D01*
X82200Y44400D01*
X82100Y44100D01*
X82200Y43700D01*
X82300Y43500D01*
X82500Y43200D01*
X82700Y43100D01*
X82900Y43000D01*
X83100D01*
X83300Y43100D01*
X83500Y43200D01*
X83700Y43400D01*
G01X84500Y44000D02*
X84700Y44300D01*
X84900Y44400D01*
X85200Y44500D01*
X85400Y44400D01*
X85500Y44300D01*
X85600Y44000D01*
X85700Y43800D01*
X85600Y43500D01*
X85500Y43300D01*
X85300Y43100D01*
X85100Y43000D01*
X84900Y43100D01*
X84700Y43300D01*
X84600Y43700D01*
X84500Y44100D01*
X84600Y44600D01*
X84700Y44900D01*
X84800Y45200D01*
X85000Y45400D01*
X85200D01*
X85500Y45300D01*
X85600Y45100D01*
G01X73300Y101000D02*
Y103400D01*
X74000D01*
X74300Y103300D01*
X74400Y103100D01*
X74500Y102800D01*
X74400Y102500D01*
X74300Y102300D01*
X74000Y102200D01*
X73300D01*
G01X74000D02*
X74500Y101000D01*
G01X76100D02*
X76300D01*
X76500Y101200D01*
X76700Y101400D01*
X76800Y101600D01*
X76700Y101900D01*
X76500Y102200D01*
X76200Y102300D01*
X76000D01*
X75800Y102400D01*
X75600Y102600D01*
Y102800D01*
X75700Y103100D01*
X75900Y103300D01*
X76100Y103400D01*
X76300Y103300D01*
X76500Y103100D01*
X76600Y102800D01*
Y102600D01*
X76400Y102400D01*
X76200Y102300D01*
X76000D01*
X75700Y102200D01*
X75500Y101900D01*
X75400Y101600D01*
X75500Y101400D01*
X75700Y101200D01*
X75900Y101000D01*
X76100D01*
G01X88200Y84000D02*
Y86400D01*
X88900D01*
X89200Y86300D01*
X89300Y86100D01*
X89400Y85800D01*
X89300Y85500D01*
X89200Y85300D01*
X88900Y85200D01*
X88200D01*
G01X88900D02*
X89400Y84000D01*
G01X91000D02*
Y86400D01*
X90600Y85900D01*
G01Y84000D02*
X91400D01*
G01X93200D02*
Y86400D01*
X92800Y85900D01*
G01Y84000D02*
X93600D01*
G01X65900Y81000D02*
X65700D01*
X65500Y81200D01*
X65300Y81400D01*
X65100Y81700D01*
Y82000D01*
Y82400D01*
Y82700D01*
X65300Y83000D01*
X65500Y83200D01*
X65700Y83400D01*
X65900D01*
X66100D01*
X66300Y83200D01*
X66500Y83000D01*
X66700Y82700D01*
Y82400D01*
Y82000D01*
Y81700D01*
X66500Y81400D01*
X66300Y81200D01*
X66100Y81000D01*
X65900D01*
G01X66100Y81600D02*
X66500Y81000D01*
G01X67500Y83000D02*
X67700Y83200D01*
X67900Y83400D01*
X68200D01*
X68500Y83300D01*
X68700Y83100D01*
Y82900D01*
Y82600D01*
X68600Y82400D01*
X68000Y82000D01*
X67700Y81800D01*
X67500Y81400D01*
Y81000D01*
X68700D01*
G01X80200Y131000D02*
Y133400D01*
X80900D01*
X81200Y133300D01*
X81300Y133100D01*
X81400Y132800D01*
X81300Y132500D01*
X81200Y132300D01*
X80900Y132200D01*
X80200D01*
G01X80900D02*
X81400Y131000D01*
G01X83000D02*
Y133400D01*
X82600Y132900D01*
G01Y131000D02*
X83400D01*
G01X85200Y133400D02*
X85000Y133300D01*
X84800Y133100D01*
X84700Y132900D01*
X84600Y132600D01*
X84500Y132200D01*
X84600Y131800D01*
X84700Y131500D01*
X84800Y131300D01*
X85000Y131100D01*
X85200Y131000D01*
X85400Y131100D01*
X85600Y131300D01*
X85700Y131500D01*
X85800Y131800D01*
X85900Y132200D01*
X85800Y132600D01*
X85700Y132900D01*
X85600Y133100D01*
X85400Y133300D01*
X85200Y133400D01*
G01X100200Y53000D02*
Y55400D01*
X100900D01*
X101200Y55300D01*
X101300Y55100D01*
X101400Y54800D01*
X101300Y54500D01*
X101200Y54300D01*
X100900Y54200D01*
X100200D01*
G01X100900D02*
X101400Y53000D01*
G01X103000D02*
Y55400D01*
X102600Y54900D01*
G01Y53000D02*
X103400D01*
G01X104600Y55000D02*
X104800Y55200D01*
X105000Y55400D01*
X105300D01*
X105600Y55300D01*
X105800Y55100D01*
Y54900D01*
Y54600D01*
X105700Y54400D01*
X105100Y54000D01*
X104800Y53800D01*
X104600Y53400D01*
Y53000D01*
X105800D01*
G01X123200Y59000D02*
Y61400D01*
X123900D01*
X124200Y61300D01*
X124300Y61100D01*
X124400Y60800D01*
X124300Y60500D01*
X124200Y60300D01*
X123900Y60200D01*
X123200D01*
G01X123900D02*
X124400Y59000D01*
G01X126000D02*
Y61400D01*
X125600Y60900D01*
G01Y59000D02*
X126400D01*
G01X127600Y60000D02*
X127800Y60300D01*
X128000Y60400D01*
X128300Y60500D01*
X128500Y60400D01*
X128600Y60300D01*
X128700Y60000D01*
X128800Y59800D01*
X128700Y59500D01*
X128600Y59300D01*
X128400Y59100D01*
X128200Y59000D01*
X128000Y59100D01*
X127800Y59300D01*
X127700Y59700D01*
X127600Y60100D01*
X127700Y60600D01*
X127800Y60900D01*
X127900Y61200D01*
X128100Y61400D01*
X128300D01*
X128600Y61300D01*
X128700Y61100D01*
G01X97600Y109200D02*
X97400Y109300D01*
X97200Y109400D01*
X96900D01*
X96700Y109300D01*
X96500Y109100D01*
X96300Y108800D01*
X96200Y108400D01*
X96100Y108100D01*
X96200Y107700D01*
X96300Y107500D01*
X96500Y107200D01*
X96700Y107100D01*
X96900Y107000D01*
X97100D01*
X97300Y107100D01*
X97500Y107200D01*
X97700Y107400D01*
G01X98500Y109000D02*
X98700Y109200D01*
X98900Y109400D01*
X99200D01*
X99500Y109300D01*
X99700Y109100D01*
Y108900D01*
Y108600D01*
X99600Y108400D01*
X99000Y108000D01*
X98700Y107800D01*
X98500Y107400D01*
Y107000D01*
X99700D01*
G01X125600Y109200D02*
X125400Y109300D01*
X125200Y109400D01*
X124900D01*
X124700Y109300D01*
X124500Y109100D01*
X124300Y108800D01*
X124200Y108400D01*
X124100Y108100D01*
X124200Y107700D01*
X124300Y107500D01*
X124500Y107200D01*
X124700Y107100D01*
X124900Y107000D01*
X125100D01*
X125300Y107100D01*
X125500Y107200D01*
X125700Y107400D01*
G01X127500Y107000D02*
Y109400D01*
X126300Y107700D01*
X127900D01*
G01X112300Y84000D02*
Y86400D01*
X113000D01*
X113300Y86300D01*
X113400Y86100D01*
X113500Y85800D01*
X113400Y85500D01*
X113300Y85300D01*
X113000Y85200D01*
X112300D01*
G01X113000D02*
X113500Y84000D01*
G01X114400Y84400D02*
X114600Y84200D01*
X114800Y84000D01*
X115100D01*
X115400Y84100D01*
X115600Y84200D01*
X115700Y84500D01*
X115800Y84800D01*
X115700Y85200D01*
X115500Y85400D01*
X115300Y85500D01*
X115100Y85600D01*
X114900Y85500D01*
X114700Y85400D01*
Y86400D01*
X115500D01*
G01X97600Y129200D02*
X97400Y129300D01*
X97200Y129400D01*
X96900D01*
X96700Y129300D01*
X96500Y129100D01*
X96300Y128800D01*
X96200Y128400D01*
X96100Y128100D01*
X96200Y127700D01*
X96300Y127500D01*
X96500Y127200D01*
X96700Y127100D01*
X96900Y127000D01*
X97100D01*
X97300Y127100D01*
X97500Y127200D01*
X97700Y127400D01*
G01X98400Y127500D02*
X98600Y127200D01*
X98900Y127000D01*
X99100D01*
X99400D01*
X99600Y127200D01*
X99800Y127500D01*
Y127700D01*
X99700Y128000D01*
X99500Y128200D01*
X99300Y128300D01*
X99000D01*
G01X99300D02*
X99500Y128400D01*
X99600Y128600D01*
X99700Y128800D01*
X99600Y129100D01*
X99500Y129300D01*
X99200Y129400D01*
X99000D01*
X98700Y129200D01*
G01X125600D02*
X125400Y129300D01*
X125200Y129400D01*
X124900D01*
X124700Y129300D01*
X124500Y129100D01*
X124300Y128800D01*
X124200Y128400D01*
X124100Y128100D01*
X124200Y127700D01*
X124300Y127500D01*
X124500Y127200D01*
X124700Y127100D01*
X124900Y127000D01*
X125100D01*
X125300Y127100D01*
X125500Y127200D01*
X125700Y127400D01*
G01X126400D02*
X126600Y127200D01*
X126800Y127000D01*
X127100D01*
X127400Y127100D01*
X127600Y127200D01*
X127700Y127500D01*
X127800Y127800D01*
X127700Y128200D01*
X127500Y128400D01*
X127300Y128500D01*
X127100Y128600D01*
X126900Y128500D01*
X126700Y128400D01*
Y129400D01*
X127500D01*
G01X135200Y49400D02*
Y47000D01*
X136400D01*
G01X138600D02*
X137400D01*
Y49400D01*
X138600D01*
G01X138100Y48200D02*
X137400D01*
G01X139500Y47000D02*
Y49400D01*
X140100D01*
X140400Y49300D01*
X140600Y49100D01*
X140700Y48900D01*
X140800Y48600D01*
X140900Y48200D01*
X140800Y47800D01*
X140700Y47500D01*
X140600Y47300D01*
X140400Y47100D01*
X140100Y47000D01*
X139500D01*
G01X133300Y31500D02*
X133500Y31200D01*
X133600Y31100D01*
X133800Y31000D01*
X134100Y31100D01*
X134300Y31200D01*
X134400Y31500D01*
X134500Y31800D01*
Y33400D01*
G01X136100Y31000D02*
Y33400D01*
X135700Y32900D01*
G01Y31000D02*
X136500D01*
G01X135200Y50000D02*
Y52400D01*
X135800D01*
X136100Y52300D01*
X136300Y52100D01*
X136400Y51900D01*
X136500Y51600D01*
X136600Y51200D01*
X136500Y50800D01*
X136400Y50500D01*
X136300Y50300D01*
X136100Y50100D01*
X135800Y50000D01*
X135200D01*
G01X138100D02*
Y52400D01*
X137700Y51900D01*
G01Y50000D02*
X138500D01*
G01X137300Y99000D02*
Y101400D01*
X138000D01*
X138300Y101300D01*
X138400Y101000D01*
X138500Y100700D01*
X138400Y100400D01*
X138300Y100100D01*
X138000Y100000D01*
X137300D01*
G01X139500Y101000D02*
X139700Y101200D01*
X139900Y101400D01*
X140200D01*
X140500Y101300D01*
X140700Y101100D01*
Y100900D01*
Y100600D01*
X140600Y100400D01*
X140000Y100000D01*
X139700Y99800D01*
X139500Y99400D01*
Y99000D01*
X140700D01*
G01X137300Y84000D02*
Y86400D01*
X138000D01*
X138300Y86300D01*
X138400Y86100D01*
X138500Y85800D01*
X138400Y85500D01*
X138300Y85300D01*
X138000Y85200D01*
X137300D01*
G01X138000D02*
X138500Y84000D01*
G01X139500Y85000D02*
X139700Y85300D01*
X139900Y85400D01*
X140200Y85500D01*
X140400Y85400D01*
X140500Y85300D01*
X140600Y85000D01*
X140700Y84800D01*
X140600Y84500D01*
X140500Y84300D01*
X140300Y84100D01*
X140100Y84000D01*
X139900Y84100D01*
X139700Y84300D01*
X139600Y84700D01*
X139500Y85100D01*
X139600Y85600D01*
X139700Y85900D01*
X139800Y86200D01*
X140000Y86400D01*
X140200D01*
X140500Y86300D01*
X140600Y86100D01*
G01X137300Y114000D02*
Y116400D01*
X138000D01*
X138300Y116300D01*
X138400Y116000D01*
X138500Y115700D01*
X138400Y115400D01*
X138300Y115100D01*
X138000Y115000D01*
X137300D01*
G01X140100Y114000D02*
Y116400D01*
X139700Y115900D01*
G01Y114000D02*
X140500D01*
G54D13*
G01X64100Y146300D02*
X64300Y146500D01*
Y146700D01*
X64400Y147000D01*
X64300Y147200D01*
X64200Y147400D01*
X64000Y147500D01*
X63200D01*
Y145000D01*
X64200D01*
X64400Y145200D01*
X64500Y145400D01*
X64600Y145700D01*
X64500Y146000D01*
X64300Y146200D01*
X64100Y146300D01*
X63200D01*
G01X65200Y147500D02*
Y145700D01*
X65400Y145300D01*
X65600Y145100D01*
X65900Y145000D01*
X66200Y145100D01*
X66400Y145300D01*
X66600Y145700D01*
Y147500D01*
G01X67300D02*
Y145000D01*
X68500D01*
G01X69100D02*
X69900Y147500D01*
X70700Y145000D01*
G01X70400Y145900D02*
X69400D01*
G01X71500Y147500D02*
X72300D01*
G01X71900D02*
Y145000D01*
G01X71500D02*
X72300D01*
G01X75300D02*
Y147500D01*
X76000D01*
X76300Y147400D01*
X76400Y147200D01*
X76500Y146900D01*
X76400Y146500D01*
X76300Y146300D01*
X76000Y146200D01*
X75300D01*
G01X76000D02*
X76500Y145000D01*
G01X77100D02*
X77900Y147500D01*
X78700Y145000D01*
G01X78400Y145900D02*
X77400D01*
G01X79200Y145000D02*
Y147500D01*
X79800D01*
X80100Y147400D01*
X80300Y147200D01*
X80400Y147000D01*
X80500Y146700D01*
X80600Y146200D01*
X80500Y145800D01*
X80400Y145500D01*
X80300Y145300D01*
X80100Y145100D01*
X79800Y145000D01*
X79200D01*
G01X81200Y147500D02*
Y145700D01*
X81400Y145300D01*
X81600Y145100D01*
X81900Y145000D01*
X82200Y145100D01*
X82400Y145300D01*
X82600Y145700D01*
Y147500D01*
G01X83500Y145800D02*
X84300D01*
G01X85100Y145000D02*
X85900Y147500D01*
X86700Y145000D01*
G01X86400Y145900D02*
X85400D01*
G01X87300Y147500D02*
Y145000D01*
X88500D01*
G01X90500D02*
X89300D01*
Y147500D01*
X90500D01*
G01X90000Y146300D02*
X89300D01*
G01X91300Y145000D02*
X92500Y147500D01*
G01X91300D02*
X92500Y145000D01*
G01X93100D02*
X93900Y147500D01*
X94700Y145000D01*
G01X94400Y145900D02*
X93400D01*
G01X95200Y145000D02*
Y147500D01*
X96600Y145000D01*
Y147500D01*
G01X97200Y145000D02*
Y147500D01*
X97800D01*
X98100Y147400D01*
X98300Y147200D01*
X98400Y147000D01*
X98500Y146700D01*
X98600Y146200D01*
X98500Y145800D01*
X98400Y145500D01*
X98300Y145300D01*
X98100Y145100D01*
X97800Y145000D01*
X97200D01*
G01X99300D02*
Y147500D01*
X100000D01*
X100300Y147400D01*
X100400Y147200D01*
X100500Y146900D01*
X100400Y146500D01*
X100300Y146300D01*
X100000Y146200D01*
X99300D01*
G01X100000D02*
X100500Y145000D01*
G01X101200Y147500D02*
Y145700D01*
X101400Y145300D01*
X101600Y145100D01*
X101900Y145000D01*
X102200Y145100D01*
X102400Y145300D01*
X102600Y145700D01*
Y147500D01*
G01X106300Y145000D02*
Y147500D01*
X105100Y145700D01*
X106700D01*
G01X107200Y145500D02*
X107400Y145200D01*
X107700Y145000D01*
X107900D01*
X108200D01*
X108400Y145200D01*
X108600Y145500D01*
Y145700D01*
X108500Y146000D01*
X108300Y146200D01*
X108100Y146300D01*
X107800D01*
G01X108100D02*
X108300Y146500D01*
X108400Y146700D01*
X108500Y146900D01*
X108400Y147200D01*
X108300Y147400D01*
X108000Y147500D01*
X107800D01*
X107500Y147300D01*
G01X109900Y145000D02*
Y147500D01*
X109500Y147000D01*
G01Y145000D02*
X110300D01*
G01X111100D02*
X111900Y147500D01*
X112700Y145000D01*
G01X112400Y145900D02*
X111400D01*
G01X63300Y140000D02*
Y142500D01*
X64000D01*
X64300Y142400D01*
X64400Y142100D01*
X64500Y141800D01*
X64400Y141400D01*
X64300Y141200D01*
X64000Y141000D01*
X63300D01*
G01X65200Y140000D02*
Y142500D01*
X65800D01*
X66100Y142400D01*
X66300Y142200D01*
X66400Y142000D01*
X66500Y141700D01*
X66600Y141200D01*
X66500Y140800D01*
X66400Y140500D01*
X66300Y140300D01*
X66100Y140100D01*
X65800Y140000D01*
X65200D01*
G01X68600Y142300D02*
X68400Y142400D01*
X68200Y142500D01*
X67900D01*
X67700Y142400D01*
X67500Y142200D01*
X67300Y141900D01*
X67200Y141500D01*
X67100Y141100D01*
X67200Y140700D01*
X67300Y140500D01*
X67500Y140200D01*
X67700Y140100D01*
X67900Y140000D01*
X68100D01*
X68300Y140100D01*
X68500Y140200D01*
X68700Y140400D01*
G01X70500Y140000D02*
X69300D01*
Y142500D01*
X70500D01*
G01X70000Y141300D02*
X69300D01*
G01X73900Y140000D02*
Y142500D01*
X73500Y142000D01*
G01Y140000D02*
X74300D01*
G01X77300Y142100D02*
X77500Y142300D01*
X77700Y142500D01*
X78000D01*
X78300Y142400D01*
X78500Y142200D01*
Y142000D01*
Y141700D01*
X78400Y141500D01*
X77800Y141100D01*
X77500Y140800D01*
X77300Y140400D01*
Y140000D01*
X78500D01*
G01X79900Y142500D02*
X79700Y142400D01*
X79500Y142200D01*
X79400Y142000D01*
X79300Y141600D01*
X79200Y141200D01*
X79300Y140900D01*
X79400Y140500D01*
X79500Y140300D01*
X79700Y140100D01*
X79900Y140000D01*
X80100Y140100D01*
X80300Y140300D01*
X80400Y140500D01*
X80500Y140900D01*
X80600Y141200D01*
X80500Y141600D01*
X80400Y142000D01*
X80300Y142200D01*
X80100Y142400D01*
X79900Y142500D01*
G01X81900Y140000D02*
Y142500D01*
X81500Y142000D01*
G01Y140000D02*
X82300D01*
G01X83900D02*
X84100D01*
X84300Y140200D01*
X84500Y140400D01*
X84600Y140700D01*
X84500Y141000D01*
X84300Y141200D01*
X84000Y141300D01*
X83800D01*
X83600Y141400D01*
X83400Y141600D01*
Y141900D01*
X83500Y142200D01*
X83700Y142400D01*
X83900Y142500D01*
X84100Y142400D01*
X84300Y142200D01*
X84400Y141900D01*
Y141600D01*
X84200Y141400D01*
X84000Y141300D01*
X83800D01*
X83500Y141200D01*
X83300Y141000D01*
X83200Y140700D01*
X83300Y140400D01*
X83500Y140200D01*
X83700Y140000D01*
X83900D01*
G01X85500Y140800D02*
X86300D01*
G01X87300Y142100D02*
X87500Y142300D01*
X87700Y142500D01*
X88000D01*
X88300Y142400D01*
X88500Y142200D01*
Y142000D01*
Y141700D01*
X88400Y141500D01*
X87800Y141100D01*
X87500Y140800D01*
X87300Y140400D01*
Y140000D01*
X88500D01*
G01X89900Y142500D02*
X89700Y142400D01*
X89500Y142200D01*
X89400Y142000D01*
X89300Y141600D01*
X89200Y141200D01*
X89300Y140900D01*
X89400Y140500D01*
X89500Y140300D01*
X89700Y140100D01*
X89900Y140000D01*
X90100Y140100D01*
X90300Y140300D01*
X90400Y140500D01*
X90500Y140900D01*
X90600Y141200D01*
X90500Y141600D01*
X90400Y142000D01*
X90300Y142200D01*
X90100Y142400D01*
X89900Y142500D01*
G01X91900Y140000D02*
Y142500D01*
X91500Y142000D01*
G01Y140000D02*
X92300D01*
G01X93400Y140300D02*
X93600Y140100D01*
X93800Y140000D01*
X94100Y140100D01*
X94300Y140300D01*
X94400Y140700D01*
X94500Y141100D01*
Y141500D01*
X94400Y141900D01*
X94300Y142200D01*
X94100Y142400D01*
X93900Y142500D01*
X93700Y142400D01*
X93500Y142200D01*
X93400Y142000D01*
X93300Y141700D01*
X93400Y141400D01*
X93500Y141100D01*
X93700Y140900D01*
X93900D01*
X94100Y141000D01*
X94300Y141200D01*
X94500Y141500D01*
G54D14*
G01X34000Y22300D02*
Y14000D01*
X53500D01*
X60000Y20500D01*
Y22300D01*
G01X34000Y31700D02*
Y40000D01*
X53500D01*
X60000Y33500D01*
Y31700D01*
G01X23000Y77800D02*
Y82200D01*
G01Y56200D02*
Y51800D01*
G01Y110200D02*
Y105800D01*
G01Y96200D02*
Y91800D01*
G01Y119800D02*
Y124200D01*
G01X62000Y56200D02*
Y51800D01*
G01X46200Y92000D02*
X41800D01*
G01X54200Y137000D02*
X49800D01*
G01X63800Y123000D02*
X68200D01*
G01X81000Y22300D02*
Y14000D01*
X100500D01*
X107000Y20500D01*
Y22300D01*
G01X81000Y31700D02*
Y40000D01*
X100500D01*
X107000Y33500D01*
Y31700D01*
G01X94000Y76800D02*
Y81200D01*
G01X92000Y51800D02*
Y56200D01*
G01X75000Y93800D02*
Y98200D01*
G01X85200Y123000D02*
X80800D01*
G01X114000Y76800D02*
Y81200D01*
G01X144100Y45400D02*
X135900D01*
G01X144100Y38600D02*
X135900D01*
G01X139000Y76800D02*
Y81200D01*
G01X126000Y51800D02*
Y56200D01*
G01X139000Y111200D02*
Y106800D01*
G01Y91800D02*
Y96200D01*
M02*
